<svg version="1.1" id="Layer_1" xmlns="http://www.w3.org/2000/svg" xmlns:xlink="http://www.w3.org/1999/xlink" x="0px" y="0px"
	 width="100%" viewBox="0 0 1024 336" enable-background="new 0 0 1024 336" xml:space="preserve">
<path fill="#000000" opacity="1.000000" stroke="none" 
	d="
M117.580002,257.547546 
	C133.373520,256.177094 148.319534,253.404373 162.577759,247.196747 
	C194.023911,233.506012 217.246536,210.909210 234.536621,181.729385 
	C238.956955,174.269379 242.943314,166.581192 246.440552,158.646637 
	C247.226746,156.862915 248.378616,155.133591 247.994370,152.773300 
	C244.199722,151.489578 240.928848,153.556564 237.470139,154.400986 
	C234.712326,155.074295 231.231659,157.431549 229.317047,154.167603 
	C227.486237,151.046539 230.302658,148.232605 232.447281,145.895676 
	C235.909836,142.122665 240.477921,141.151184 245.268600,141.778244 
	C251.365356,142.576279 254.262863,140.236191 256.563965,134.368805 
	C264.835449,113.278023 274.328705,92.693344 284.049103,72.223259 
	C284.954987,70.315521 286.188751,68.462090 286.137451,65.606438 
	C279.643372,66.180901 273.267181,66.705063 266.899292,67.316063 
	C250.844788,68.856506 234.670883,69.777382 219.106186,74.417244 
	C204.254318,78.844620 190.193649,85.032700 179.800980,97.075592 
	C168.225067,110.489616 162.780426,126.111404 166.266678,143.815399 
	C169.698624,161.243576 188.349350,168.586777 202.646500,157.880157 
	C215.517334,148.241669 221.671234,135.062042 218.857040,118.566376 
	C218.616089,117.154030 217.769623,115.362625 219.731445,114.666672 
	C221.849289,113.915367 223.353439,115.329071 224.037994,117.124825 
	C226.097855,122.528236 226.290405,128.080185 225.379639,133.809296 
	C221.650177,157.269394 198.509827,173.062973 176.099777,167.307663 
	C158.107132,162.686829 146.018051,142.152496 149.168152,122.051666 
	C153.001511,97.591080 168.457336,82.984283 189.960266,73.532112 
	C207.583542,65.785339 226.385605,63.238308 245.362961,61.744926 
	C259.465637,60.635151 273.579712,59.659611 287.697479,58.761696 
	C290.187378,58.603329 291.651031,57.498993 292.869873,55.511753 
	C296.038544,50.345531 300.012848,45.903728 304.955963,42.340458 
	C306.874634,40.957371 308.918365,39.876167 311.171356,39.209980 
	C316.190643,37.725822 321.279449,39.113731 323.343109,42.483006 
	C325.594086,46.158024 324.409790,52.197723 320.591095,55.714355 
	C315.763306,60.160263 309.836243,62.519196 303.482361,63.289314 
	C297.228912,64.047256 294.146301,67.295906 291.855377,73.037361 
	C283.336395,94.387497 275.578796,116.017288 267.512299,137.533142 
	C267.120453,138.578339 266.469360,139.659134 267.093964,141.185074 
	C269.515778,142.361191 272.422485,142.320511 275.136993,142.471863 
	C296.252594,143.649216 317.386353,144.509460 338.497284,145.758179 
	C343.468719,146.052246 345.797028,144.361420 347.616760,139.697678 
	C356.706085,116.403290 366.645386,93.480003 379.701996,72.053253 
	C383.004578,66.633484 386.633575,61.456661 390.970154,56.801250 
	C396.733215,50.614483 404.303955,49.651764 412.360535,48.464691 
	C389.255676,78.016777 374.704407,110.941437 361.226532,144.912140 
	C369.034760,147.045303 375.869293,144.610428 382.578766,143.380386 
	C383.565796,146.981888 381.426208,147.786011 379.827423,148.796494 
	C374.254303,152.318909 368.173126,154.633057 361.612213,155.179718 
	C358.374115,155.449539 356.947357,156.903625 356.034241,159.788574 
	C350.664948,176.752335 344.292450,193.437714 342.800476,211.415298 
	C342.452484,215.608551 342.307800,219.674255 343.239288,223.806961 
	C345.041290,231.801682 350.326813,234.347107 357.682220,230.460358 
	C361.850342,228.257858 365.328247,225.108841 368.430054,221.593369 
	C377.429779,211.393433 384.820221,200.175797 389.771729,187.437195 
	C395.013641,173.951309 402.737946,162.280167 414.731171,153.828812 
	C420.884583,149.492661 427.630035,146.754227 435.339996,147.815308 
	C443.106293,148.884155 447.876923,153.620575 450.136902,160.929459 
	C454.026123,173.507141 450.706482,185.275269 445.726562,196.764175 
	C442.993774,203.068954 443.856903,204.566360 450.756104,204.759796 
	C458.530182,204.977753 463.736450,200.930206 467.115631,194.446869 
	C472.426331,184.257797 477.469238,173.927658 482.535583,163.613068 
	C490.393005,147.616226 490.304382,148.507462 509.447784,148.808472 
	C509.903137,148.815643 510.353882,149.116638 510.907349,149.316986 
	C510.843842,149.833862 510.963562,150.466568 510.704407,150.739212 
	C494.664001,167.614731 487.894379,189.543976 478.440430,209.997437 
	C477.028076,213.053024 477.066223,216.498489 477.251190,219.845718 
	C477.553040,225.307617 480.776764,227.256866 485.735016,224.781296 
	C491.911072,221.697678 495.957153,216.300339 499.824036,210.868988 
	C511.373871,194.646088 520.204712,176.858566 528.598572,158.910309 
	C532.176208,151.260361 537.094238,147.812775 545.320557,148.702728 
	C547.878906,148.979477 550.549377,148.270187 553.832275,149.585526 
	C547.899109,156.114105 543.144836,162.848206 539.320618,170.192474 
	C533.322144,181.712311 527.069946,193.116409 523.050598,205.549423 
	C521.758179,209.547241 521.094421,213.619888 521.222168,217.832428 
	C521.415894,224.221771 524.760559,226.555328 530.781738,224.230850 
	C535.656555,222.348907 538.885681,218.521790 541.717102,214.313660 
	C550.431702,201.361542 556.656006,187.199722 561.824707,172.551605 
	C566.534790,159.203003 570.701355,145.684982 573.577759,131.802048 
	C574.483276,127.431190 576.067322,123.624283 581.437500,123.783173 
	C585.594055,123.906143 588.834045,128.094803 589.329773,133.309280 
	C589.936707,139.693375 588.141296,145.086563 583.433228,149.577728 
	C581.815125,151.121323 579.713684,152.387909 578.740356,155.630630 
	C586.470886,155.748474 593.863098,156.134399 601.250793,155.172318 
	C609.633972,154.080582 610.920044,155.542892 608.159363,163.704132 
	C605.481934,171.619522 601.554749,178.982162 597.830078,186.431610 
	C593.582703,194.926422 589.254089,203.408981 587.129822,212.748398 
	C586.232483,216.693390 584.178589,221.717026 588.579285,224.140152 
	C593.401733,226.795563 596.478760,221.996262 599.210388,218.859756 
	C606.038574,211.019470 611.122437,202.061447 615.407715,192.584747 
	C621.424927,179.277832 629.009644,166.947678 640.143250,157.239838 
	C653.557373,145.543503 671.249634,143.070816 684.611145,150.797943 
	C687.487915,152.461624 690.483459,154.218414 691.808899,157.480362 
	C692.702942,159.680405 693.118164,162.371002 690.493652,163.660675 
	C687.871155,164.949341 686.704407,162.631012 685.581482,160.733582 
	C680.348633,151.891388 675.747253,150.367722 666.623474,154.954956 
	C652.677856,161.966537 643.723267,174.020386 635.573242,186.706558 
	C630.705444,194.283585 626.502991,202.251312 624.780090,211.264191 
	C624.270996,213.927551 624.157349,216.539505 625.103027,219.140839 
	C626.775330,223.740952 629.717468,225.264374 634.464355,224.006271 
	C640.972473,222.281357 645.251892,217.499191 649.429626,212.774872 
	C657.885376,203.212830 665.032227,192.625946 669.048706,180.512863 
	C671.854126,172.052063 676.985413,168.806366 686.080750,169.306808 
	C689.819153,188.475998 687.766357,207.572220 683.204407,227.383377 
	C689.157410,224.263245 692.967407,220.073883 696.377014,215.647537 
	C704.985168,204.472549 711.307190,192.113800 715.539001,178.583023 
	C724.221680,150.821106 735.903015,124.346848 750.739746,99.297707 
	C754.083862,93.651718 758.104980,88.582169 763.649475,84.906433 
	C766.015930,83.337585 768.459229,81.957375 771.382446,81.614700 
	C778.074829,80.830185 781.897156,83.964294 782.315735,90.700172 
	C782.783813,98.234360 780.623230,105.224022 777.584839,111.945099 
	C765.570679,138.521072 750.767578,163.057755 730.082825,184.181778 
	C720.867310,193.593033 719.414246,207.286621 722.060974,220.405914 
	C723.269348,226.395645 728.732178,228.314880 734.804504,225.847336 
	C740.226624,223.643982 744.124634,219.509201 747.691284,215.054337 
	C754.411377,206.660721 759.081726,197.091507 763.657593,187.437683 
	C771.174316,171.579468 781.406555,158.060211 797.562927,150.021255 
	C806.594421,145.527405 815.992920,144.405167 825.642273,147.900574 
	C829.778442,149.398834 833.537170,151.559052 835.657776,155.686661 
	C836.605164,157.530518 836.391907,159.345612 834.588257,160.544907 
	C832.521912,161.918839 831.347046,160.630798 830.155640,158.940613 
	C826.040710,153.103119 821.356934,151.732910 814.577637,154.165192 
	C809.300354,156.058578 804.853394,159.254868 800.806763,163.031921 
	C789.334351,173.740036 780.465210,186.331131 773.822144,200.524994 
	C771.464661,205.562134 770.192017,210.884445 769.604126,216.375336 
	C768.857117,223.352600 773.574951,226.759369 779.994751,223.733948 
	C785.895203,220.953293 789.944946,215.972626 793.816223,210.960526 
	C801.176514,201.431335 806.766418,190.786575 812.684692,180.354553 
	C813.671265,178.615555 814.639709,176.863617 815.697205,175.167953 
	C821.971436,165.106964 826.483521,163.568481 838.609436,167.575485 
	C835.097229,172.889114 830.746643,177.495071 827.778381,183.057693 
	C821.940796,193.997650 816.864868,205.170837 816.280029,217.821091 
	C816.150391,220.624069 815.833618,223.782974 819.121521,225.181610 
	C822.005859,226.408600 824.306702,224.530563 826.372253,222.915985 
	C830.247803,219.886597 833.266357,216.372559 833.647766,210.989517 
	C834.034363,205.533905 836.427979,201.052948 841.927917,198.950439 
	C844.051025,198.138824 844.725464,196.218277 845.645813,194.468857 
	C852.858093,180.758957 859.977783,166.999313 867.312439,153.355240 
	C869.924622,148.495926 873.354614,144.142258 877.723633,140.677078 
	C883.085083,136.424744 889.084473,135.368774 895.582703,137.583847 
	C897.457520,138.222931 898.980530,139.433167 898.299683,141.653717 
	C897.654175,143.758591 895.701599,143.397293 894.063171,143.193222 
	C884.318237,141.979401 879.813904,145.829208 879.247864,155.750443 
	C878.927551,161.365265 879.731262,166.703278 882.417175,171.704803 
	C883.914307,174.492783 885.268494,177.359070 886.810852,180.120956 
	C897.377747,199.043320 895.753601,211.746353 880.729309,227.315857 
	C890.175842,226.334656 895.635315,221.255981 897.185303,212.084839 
	C898.161743,206.307037 899.931519,201.060089 906.102966,198.672455 
	C908.321960,197.813965 908.966187,195.525482 909.951721,193.627441 
	C916.093201,181.799744 922.175476,169.941269 928.340271,158.125778 
	C931.674500,151.735458 935.652710,145.794479 941.178345,141.044647 
	C946.261414,136.675354 952.143555,135.708130 958.506226,137.257629 
	C960.502563,137.743805 962.592163,138.680328 962.083862,141.243332 
	C961.513977,144.117004 959.115356,143.351547 957.216797,143.003952 
	C949.681213,141.624329 946.885498,142.967743 944.382080,150.193878 
	C941.328613,159.007660 943.546387,167.210175 947.912292,175.097473 
	C951.049927,180.765915 954.875793,186.194992 956.220825,192.643433 
	C959.066772,206.287811 955.783142,218.041199 944.458191,227.147415 
	C950.809509,226.740707 955.958679,223.659454 960.454529,217.632050 
	C966.875122,209.024170 971.392883,199.361023 975.951538,189.713242 
	C976.720764,188.085220 977.137634,185.130524 979.832764,186.219498 
	C982.555176,187.319489 980.900085,189.662216 980.124634,191.351349 
	C974.707397,203.151535 969.748962,215.226791 960.253723,224.606781 
	C952.945251,231.826523 944.242615,234.461227 934.186340,232.742416 
	C932.522278,232.457962 930.907654,232.291321 929.235535,232.590729 
	C917.529724,234.686646 906.854980,233.567734 899.662537,222.883362 
	C897.502502,222.785080 896.709839,224.249710 895.676453,225.242966 
	C889.696533,230.990875 882.529297,233.828812 874.321411,233.135208 
	C869.653992,232.740784 865.103455,232.667145 860.456238,233.220108 
	C850.098450,234.452545 841.366272,231.444855 835.452026,222.458832 
	C832.404419,223.663956 830.977173,226.045059 829.043213,227.802719 
	C825.998840,230.569733 822.544739,232.527267 818.486389,233.111145 
	C810.013184,234.330185 803.405640,228.933273 802.767090,220.315430 
	C802.427673,215.734772 802.662964,211.147873 803.633972,205.331757 
	C798.130371,212.961426 793.223389,219.441269 787.097717,224.835632 
	C784.977234,226.703003 782.852295,228.640091 780.463684,230.115112 
	C771.425964,235.696259 763.050049,232.651428 759.330811,222.657486 
	C758.000305,219.082260 757.687073,215.325912 757.405701,210.697067 
	C752.447815,217.197586 748.460693,223.340027 742.288086,227.541840 
	C738.208984,230.318512 733.872192,232.263947 729.021057,233.020187 
	C716.640869,234.950089 707.789917,227.377655 707.677063,214.800751 
	C707.659668,212.866272 707.674622,210.931503 707.674622,208.148773 
	C703.375244,214.274826 699.958252,219.983948 695.239746,224.659348 
	C692.881653,226.995880 690.613586,229.772690 687.731628,231.159058 
	C681.515137,234.149536 678.919983,239.417496 676.123352,245.242355 
	C665.382080,267.614410 651.567200,287.549286 629.748901,300.794189 
	C619.529846,306.997711 608.577087,309.543640 596.765564,308.244537 
	C589.978455,307.498077 584.085144,304.927765 581.324585,298.081573 
	C577.988281,289.807617 579.369019,282.005463 584.713989,275.024872 
	C590.734558,267.161926 599.129517,262.271973 607.626343,257.609589 
	C621.446960,250.025986 636.343384,244.886734 651.424683,240.929947 
	C663.925903,237.650085 668.884033,230.545349 669.984253,218.360428 
	C670.787292,209.467102 672.198364,200.668427 671.589233,190.236710 
	C668.731567,194.869385 666.601501,198.324005 664.470032,201.777664 
	C659.103699,210.472626 652.913574,218.498856 645.132324,225.186554 
	C638.932617,230.514908 632.077515,234.279297 623.683350,231.099792 
	C615.375183,227.952896 612.403564,220.832703 611.288818,211.790665 
	C608.174316,215.713165 605.592285,219.263306 602.699219,222.538712 
	C598.351807,227.460724 593.620178,231.918900 586.535461,232.446716 
	C579.335022,232.983154 573.534424,228.860519 571.620544,221.862213 
	C569.865417,215.444595 571.243530,209.293884 573.355713,203.265411 
	C576.573425,194.081589 581.891663,185.962921 586.611389,177.537201 
	C591.526550,168.762436 589.617615,164.984985 579.638733,163.272034 
	C571.285645,161.838150 571.336853,161.858963 568.134766,169.741104 
	C561.993652,184.857910 556.390869,200.222290 547.577637,214.110504 
	C544.790771,218.502182 541.654907,222.569489 537.802246,226.063339 
	C531.857666,231.454361 524.996216,234.480423 517.239929,231.105759 
	C509.477692,227.728470 508.643494,220.315811 508.746552,212.884827 
	C508.773834,210.914215 509.165436,208.948639 509.444702,206.498489 
	C505.799438,211.316727 502.457428,215.889786 498.946716,220.329468 
	C495.607574,224.552185 491.621033,228.069305 486.731873,230.452271 
	C480.282593,233.595627 473.957031,233.076843 468.351501,228.824707 
	C462.990540,224.758102 462.130463,218.882614 463.516663,212.580383 
	C464.042175,210.191208 464.660736,207.822495 465.394196,204.795135 
	C457.717285,209.432236 450.173004,210.913818 442.094604,207.843475 
	C439.927643,207.019867 439.240356,209.053619 438.315674,210.320724 
	C433.667725,216.689682 428.377777,222.418686 421.903534,226.976761 
	C418.317871,229.501144 414.373505,231.337997 410.060120,232.083725 
	C398.529510,234.077225 390.593994,229.061401 387.360504,217.715088 
	C386.454529,214.536194 386.058411,211.212051 385.313782,207.361725 
	C380.686615,214.121872 376.742462,221.000824 371.481689,226.903168 
	C365.539612,233.569824 359.142029,239.565903 350.045258,241.659683 
	C337.660370,244.510284 328.684326,238.433350 326.691345,225.768265 
	C324.856964,214.111374 327.792603,202.958679 330.442810,191.795334 
	C332.983429,181.093445 336.422424,170.653961 339.963776,160.251724 
	C340.942352,157.377289 341.030914,155.494461 337.091614,155.332489 
	C313.964691,154.381592 290.838867,153.381897 267.723419,152.190796 
	C263.659546,151.981384 261.752319,153.393295 260.526154,157.198517 
	C252.026535,183.575790 238.757599,207.257675 219.698502,227.484589 
	C194.162292,254.585526 163.589035,271.363251 125.686295,273.456940 
	C107.421211,274.465851 89.703087,272.769012 73.152695,264.679291 
	C54.324619,255.476227 44.145626,240.040787 41.556702,219.227051 
	C39.305096,201.125214 42.419212,184.418335 52.913570,169.341156 
	C56.794460,163.765488 61.638752,159.231964 68.369087,157.274323 
	C69.936272,156.818466 71.643661,156.756500 73.292992,156.699295 
	C74.590202,156.654282 76.170563,156.587097 76.382072,158.416168 
	C76.543732,159.814056 75.370865,160.533905 74.296890,160.919006 
	C59.392277,166.263336 53.358318,178.514648 50.887886,192.649353 
	C48.040482,208.940903 48.806110,224.978561 60.378597,238.451401 
	C70.045052,249.705185 83.112457,254.335281 97.217110,256.578247 
	C103.785011,257.622650 110.446312,258.018799 117.580002,257.547546 
M623.886719,257.433075 
	C619.087708,259.738983 614.224060,261.920624 609.502991,264.376404 
	C599.323547,269.671478 590.908997,276.717010 587.225708,288.114166 
	C584.177429,297.546082 588.422974,303.367310 598.302124,302.717316 
	C609.929260,301.952393 619.502014,295.962311 628.204529,288.931854 
	C642.271667,277.567505 651.915588,262.512726 661.148071,247.227921 
	C661.619507,246.447449 662.326782,245.509262 661.193481,244.383972 
	C648.856323,248.088455 636.496033,251.953094 623.886719,257.433075 
M420.726837,165.229141 
	C409.544800,178.973770 402.470551,194.489197 400.875916,212.243637 
	C400.440430,217.091919 400.668152,222.459137 405.536499,225.038498 
	C410.302277,227.563522 414.953491,225.262009 418.882568,222.113647 
	C423.843445,218.138428 427.772736,213.193100 431.691742,208.215210 
	C434.973389,204.046921 436.429474,200.084229 433.057648,195.202621 
	C431.995514,193.664932 431.826996,191.448761 431.458344,189.503555 
	C429.537994,179.371109 433.763977,174.892838 443.608063,176.551590 
	C445.094727,172.455811 445.100739,166.859070 443.623199,162.509720 
	C441.894226,157.420258 437.745392,155.259659 432.605682,156.914703 
	C428.058136,158.379028 424.398834,161.217896 420.726837,165.229141 
M861.042542,175.442215 
	C857.588806,182.075150 854.118347,188.699478 850.693604,195.347336 
	C849.878784,196.929016 848.596313,198.577072 850.245544,200.358994 
	C852.226257,202.499054 852.166443,205.155136 852.495178,207.805389 
	C853.173523,213.275116 854.098572,218.731857 858.692261,222.581207 
	C863.120422,226.291794 865.377441,226.224915 869.098145,221.799698 
	C874.314026,215.596024 876.684082,208.343658 876.828125,200.210388 
	C877.074341,186.308853 871.435303,173.427338 869.649902,159.558304 
	C866.881775,164.627014 864.113708,169.695709 861.042542,175.442215 
M917.480469,189.919662 
	C915.190186,194.336823 911.377197,198.474625 915.875916,203.840927 
	C916.749634,204.883224 916.205078,207.064072 916.439697,208.701828 
	C917.279968,214.567902 918.762634,220.061188 924.104370,223.710022 
	C926.849426,225.585129 928.956360,225.727661 931.497009,223.229050 
	C937.532349,217.293488 940.193787,210.010986 940.677185,201.794098 
	C941.527100,187.345840 935.395203,173.961288 934.464417,158.533508 
	C927.626770,169.032822 923.243530,179.435455 917.480469,189.919662 
M737.308716,158.710861 
	C735.434021,163.624649 732.953430,168.319351 731.518188,174.417587 
	C745.764404,158.674530 756.160278,141.483292 765.533875,123.632599 
	C769.400024,116.270020 773.242493,108.852791 775.136780,100.642555 
	C775.730469,98.069191 776.302063,95.518387 774.966431,92.984642 
	C767.217346,95.807144 753.298401,120.149109 737.308716,158.710861 
M919.813965,228.174637 
	C916.947449,223.010361 912.306702,218.864990 911.558899,211.740814 
	C906.234375,221.761978 909.637817,228.183182 919.813965,228.174637 
M854.638794,225.518051 
	C850.898560,222.256271 849.258850,217.705994 847.252930,212.726578 
	C844.365540,217.074005 844.240540,221.086792 846.703796,224.762360 
	C848.973694,228.149368 852.474304,229.329514 857.348022,227.040161 
	C856.591736,226.683304 855.835388,226.326447 854.638794,225.518051 
M302.466003,56.997398 
	C306.296814,56.537361 309.930084,55.526127 312.829681,52.823196 
	C314.036102,51.698635 315.324585,50.307529 313.942078,48.563385 
	C312.828644,47.158707 311.301300,47.571243 309.870697,48.238930 
	C306.108154,49.994972 303.647308,52.946655 302.466003,56.997398 
z"/>
</svg>