<svg xmlns="http://www.w3.org/2000/svg" version="1.1" xmlns:xlink="http://www.w3.org/1999/xlink" xmlns:svgjs="http://svgjs.dev/svgjs" width="2000" height="181" viewBox="0 0 2000 181"><g transform="matrix(1,0,0,1,-1.2121212121212466,-1.6691107003491368)"><svg viewBox="0 0 396 36" data-background-color="#ffffff" preserveAspectRatio="xMidYMid meet" height="181" width="2000" xmlns="http://www.w3.org/2000/svg" xmlns:xlink="http://www.w3.org/1999/xlink"><g id="tight-bounds" transform="matrix(1,0,0,1,0.2400000000000091,0.3319778188539715)"><svg viewBox="0 0 395.52 35.33604436229204" height="35.33604436229204" width="395.52"><g><svg viewBox="0 0 395.52 35.33604436229204" height="35.33604436229204" width="395.52"><g><svg viewBox="0 0 395.52 35.33604436229204" height="35.33604436229204" width="395.52"><g id="textblocktransform"><svg viewBox="0 0 395.52 35.33604436229204" height="35.33604436229204" width="395.52" id="textblock"><g><svg viewBox="0 0 395.52 35.33604436229204" height="35.33604436229204" width="395.52"><g transform="matrix(1,0,0,1,0,0)"><svg width="395.52" viewBox="1.5 -36 405.73 36.25" height="35.33604436229204" data-palette-color="#000000"><path d="M31.95 0.25L2.35 0.25 2.35-6.25 31.1-6.2Q33.3-6.2 34.48-7.23 35.65-8.25 35.65-10.55L35.65-10.55Q35.65-12.85 34.48-13.88 33.3-14.9 31.1-14.9L31.1-14.9 13.2-14.9Q7.65-14.9 4.58-17.57 1.5-20.25 1.5-25.45L1.5-25.45Q1.5-30.65 4.58-33.33 7.65-36 13.2-36L13.2-36 41.3-36 41.3-29.5 14.05-29.55Q11.9-29.55 10.7-28.58 9.5-27.6 9.5-25.45L9.5-25.45Q9.5-23.3 10.7-22.33 11.9-21.35 14.05-21.35L14.05-21.35 31.95-21.35Q37.5-21.35 40.58-18.63 43.65-15.9 43.65-10.55L43.65-10.55Q43.65-5.25 40.58-2.5 37.5 0.25 31.95 0.25L31.95 0.25ZM54.35 0L45.65 0 61.75-35.75 74.1-35.75 90.2 0 81.5 0 78.1-7.55 57.75-7.55 54.35 0ZM67.6-29.5L60.65-14.05 75.2-14.05 68.25-29.5 67.6-29.5ZM102.2 0L94.2 0 94.2-35.75 102.3-35.75 127.6-10.05 127.6-35.75 135.6-35.75 135.6 0 127.5 0 102.2-25.75 102.2 0ZM164.49 0L142.59 0 142.59-35.75 148.49-35.75 164.49-35.8Q174.19-35.8 179.54-31.25 184.89-26.7 184.89-17.9L184.89-17.9Q184.89-9.1 179.54-4.55 174.19 0 164.49 0L164.49 0ZM163.94-29.3L163.94-29.3 150.59-29.3 150.59-6.5 163.94-6.5Q170.24-6.5 173.49-9.25 176.74-12 176.74-17.9L176.74-17.9Q176.74-23.85 173.49-26.58 170.24-29.3 163.94-29.3ZM230.24 0.25L208.29 0.25Q199.14 0.25 194.02-4.33 188.89-8.9 188.89-17.9L188.89-17.9Q188.89-26.85 194.12-31.43 199.34-36 209.29-36L209.29-36 228.29-36 228.29-29.5 209.84-29.5Q203.29-29.5 200.17-26.75 197.04-24 197.04-17.9L197.04-17.9Q197.04-12.1 199.79-9.33 202.54-6.55 207.84-6.3L207.84-6.3 207.84-20.2 230.24-20.2 230.24 0.25ZM215.34-13.7L215.34-6.25 222.24-6.25 222.24-13.7 215.34-13.7ZM271.39 0L237.24 0 237.24-35.75 245.24-35.75 245.24-6.5 271.39-6.5 271.39 0ZM282.09 0L273.39 0 289.49-35.75 301.84-35.75 317.94 0 309.24 0 305.84-7.55 285.49-7.55 282.09 0ZM295.34-29.5L288.39-14.05 302.94-14.05 295.99-29.5 295.34-29.5ZM350.38 0.25L320.78 0.25 320.78-6.25 349.53-6.2Q351.73-6.2 352.91-7.23 354.08-8.25 354.08-10.55L354.08-10.55Q354.08-12.85 352.91-13.88 351.73-14.9 349.53-14.9L349.53-14.9 331.63-14.9Q326.08-14.9 323.01-17.57 319.93-20.25 319.93-25.45L319.93-25.45Q319.93-30.65 323.01-33.33 326.08-36 331.63-36L331.63-36 359.73-36 359.73-29.5 332.48-29.55Q330.33-29.55 329.13-28.58 327.93-27.6 327.93-25.45L327.93-25.45Q327.93-23.3 329.13-22.33 330.33-21.35 332.48-21.35L332.48-21.35 350.38-21.35Q355.93-21.35 359.01-18.63 362.08-15.9 362.08-10.55L362.08-10.55Q362.08-5.25 359.01-2.5 355.93 0.25 350.38 0.25L350.38 0.25ZM395.53 0.25L365.93 0.25 365.93-6.25 394.68-6.2Q396.88-6.2 398.06-7.23 399.23-8.25 399.23-10.55L399.23-10.55Q399.23-12.85 398.06-13.88 396.88-14.9 394.68-14.9L394.68-14.9 376.78-14.9Q371.23-14.9 368.16-17.57 365.08-20.25 365.08-25.45L365.08-25.45Q365.08-30.65 368.16-33.33 371.23-36 376.78-36L376.78-36 404.88-36 404.88-29.5 377.63-29.55Q375.48-29.55 374.28-28.58 373.08-27.6 373.08-25.45L373.08-25.45Q373.08-23.3 374.28-22.33 375.48-21.35 377.63-21.35L377.63-21.35 395.53-21.35Q401.08-21.35 404.16-18.63 407.23-15.9 407.23-10.55L407.23-10.55Q407.23-5.25 404.16-2.5 401.08 0.25 395.53 0.25L395.53 0.25Z" opacity="1" transform="matrix(1,0,0,1,0,0)" fill="#000000" class="wordmark-text-0" data-fill-palette-color="primary" id="text-0"></path></svg></g></svg></g></svg></g></svg></g></svg></g><defs></defs></svg><rect width="395.52" height="35.33604436229204" fill="none" stroke="none" visibility="hidden"></rect></g></svg></g></svg>